<?xml version="1.0" encoding="UTF-8" standalone="no"?>
<!-- Created with Inkscape (http://www.inkscape.org/) -->

<svg
   version="1.1"
   id="svg2"
   width="238.86667"
   height="90.708664"
   viewBox="0 0 238.86667 90.708664"
   sodipodi:docname="HAWK_I_2_pos.svg"
   inkscape:version="1.2.1 (9c6d41e410, 2022-07-14)"
   xmlns:inkscape="http://www.inkscape.org/namespaces/inkscape"
   xmlns:sodipodi="http://sodipodi.sourceforge.net/DTD/sodipodi-0.dtd"
   xmlns="http://www.w3.org/2000/svg"
   xmlns:svg="http://www.w3.org/2000/svg">
  <defs
     id="defs6">
    <clipPath
       clipPathUnits="userSpaceOnUse"
       id="clipPath30">
      <path
         d="M 0,0 H 179.15 V 68.031 H 0 Z"
         id="path28" />
    </clipPath>
    <clipPath
       clipPathUnits="userSpaceOnUse"
       id="clipPath48">
      <path
         d="M 0,0 H 179.15 V 68.031 H 0 Z"
         id="path46" />
    </clipPath>
  </defs>
  <sodipodi:namedview
     id="namedview4"
     pagecolor="#ffffff"
     bordercolor="#666666"
     borderopacity="1.0"
     inkscape:showpageshadow="2"
     inkscape:pageopacity="0.0"
     inkscape:pagecheckerboard="0"
     inkscape:deskcolor="#d1d1d1"
     showgrid="false"
     inkscape:zoom="5.3418923"
     inkscape:cx="118.02934"
     inkscape:cy="45.302299"
     inkscape:window-width="1920"
     inkscape:window-height="1057"
     inkscape:window-x="-8"
     inkscape:window-y="-8"
     inkscape:window-maximized="1"
     inkscape:current-layer="g10">
    <inkscape:page
       x="0"
       y="0"
       id="page8"
       width="238.86667"
       height="90.708664" />
  </sodipodi:namedview>
  <g
     id="g10"
     inkscape:groupmode="layer"
     inkscape:label="Page 1"
     transform="matrix(1.3333333,0,0,-1.3333333,0,90.708667)">
    <path
       d="M 0,34.016 H 75.685 V 68.032 H 0 Z"
       style="fill:#4f4c4d;fill-opacity:1;fill-rule:nonzero;stroke:none"
       id="path12" />
    <g
       id="g14"
       transform="translate(9.4238,50.0706)">
      <path
         d="m 0,0 h 8.202 v -10.102 h 3.47 v 22.11 H 8.202 V 3.175 H 0 v 8.833 h -3.472 v -22.11 H 0 Z m 18.897,12.008 -6.247,-22.11 h 3.786 l 2.323,8.229 h 5.395 L 23.389,1.282 H 19.65 l 3.033,10.726 z m 4.1,0 5.396,-22.11 h 3.786 l 4.265,17.917 4.254,-17.917 h 3.785 l 5.395,22.11 H 46.092 L 42.543,-5.718 38.331,12.008 H 34.545 L 30.34,-5.718 26.782,12.008 Z M 49.53,1.281 56.471,-10.102 h 4.101 L 53.631,1.28 60.416,12.008 h -4.103 z"
         style="fill:#ffffff;fill-opacity:1;fill-rule:nonzero;stroke:none"
         id="path16" />
    </g>
    <path
       d="M 50.173,17.008 H 160.157 V 31.181 H 50.173 Z"
       style="fill:#a55985;fill-opacity:1;fill-rule:nonzero;stroke:none"
       id="path18" />
    <path
       d="m 78.52,31.181 h 49.323 V 45.354 H 78.52 Z"
       style="fill:#a55985;fill-opacity:1;fill-rule:nonzero;stroke:none"
       id="path20" />
    <path
       d="m 129.26,0 h 49.89 v 14.173 h -49.89 z"
       style="fill:#4f4c4d;fill-opacity:1;fill-rule:nonzero;stroke:none"
       id="path22" />
    <g
       id="g24">
      <g
         id="g26"
         clip-path="url(#clipPath30)">
        <text
           xml:space="preserve"
           transform="matrix(1,0,0,-1,132.2362,3.6666)"
           style="font-variant:normal;font-weight:bold;font-stretch:normal;font-size:10px;font-family:MetaPro-Bold;-inkscape-font-specification:MetaPro-Bold;writing-mode:lr-tb;fill:#ffffff;fill-opacity:1;fill-rule:nonzero;stroke:none"
           id="text34"><tspan
             x="0 6.4949999 11.9 15.585 19.32 22.084 27.599001 33.203999 38.539001"
             y="0"
             sodipodi:role="line"
             id="tspan32">Göttingen</tspan></text>
        <g
           id="g36"
           transform="translate(138.1056,4.2065)">
          <path
             d="m 0,0 v 3.319 h -2.689 l 0.18,-1.138 h 1.06 V 0.6 c -0.23,-0.12 -0.48,-0.171 -0.79,-0.171 -0.45,0 -0.831,0.141 -1.091,0.391 -0.35,0.35 -0.52,0.99 -0.52,1.98 0,1.04 0.12,1.79 0.59,2.241 0.24,0.23 0.591,0.35 1.001,0.35 0.53,0 1,-0.17 1.45,-0.541 L -0.07,5.72 C -0.679,6.25 -1.439,6.519 -2.279,6.519 -2.94,6.519 -3.46,6.37 -3.97,6.03 -4.939,5.381 -5.419,4.34 -5.419,2.87 c 0,-1.04 0.23,-1.78 0.74,-2.431 0.559,-0.719 1.329,-1.058 2.37,-1.058 0.82,0 1.6,0.2 2.309,0.619 m 5.655,2.04 c 0,0.83 -0.18,1.391 -0.59,1.87 C 4.626,4.43 4.056,4.679 3.325,4.679 1.945,4.679 1.026,3.611 1.026,2 c 0,-1.61 0.909,-2.649 2.299,-2.649 0.791,0 1.301,0.269 1.69,0.709 0.44,0.5 0.64,1.1 0.64,1.98 M 4.196,2.05 c 0,-1.21 -0.25,-1.731 -0.831,-1.731 -0.26,0 -0.56,0.141 -0.68,0.421 -0.11,0.26 -0.17,0.7 -0.17,1.29 0,0.51 0.05,0.87 0.14,1.141 0.11,0.32 0.37,0.52 0.69,0.52 0.241,0 0.451,-0.1 0.581,-0.27 0.18,-0.23 0.27,-0.681 0.27,-1.371 M 3.045,5.81 c 0,0.42 -0.34,0.769 -0.75,0.769 -0.42,0 -0.78,-0.349 -0.78,-0.769 0,-0.42 0.35,-0.769 0.76,-0.769 0.42,0 0.77,0.349 0.77,0.769 m 2.11,0 c 0,0.42 -0.34,0.769 -0.75,0.769 -0.42,0 -0.78,-0.349 -0.78,-0.769 0,-0.42 0.35,-0.769 0.76,-0.769 0.42,0 0.77,0.349 0.77,0.769 M 9.34,-0.43 9.17,0.37 C 8.93,0.299 8.81,0.269 8.69,0.269 8.23,0.269 8.11,0.44 8.11,1.09 v 2.571 h 0.86 l 0.34,0.918 h -1.2 c 0,0.52 0.03,1.08 0.08,1.55 L 6.831,5.789 C 6.781,5.409 6.781,5.079 6.781,4.579 H 6.271 V 3.661 h 0.51 V 0.88 c 0,-0.47 0.01,-0.57 0.09,-0.79 0.16,-0.45 0.699,-0.749 1.379,-0.749 0.35,0 0.7,0.07 1.09,0.229 m 3.685,0 -0.17,0.8 c -0.24,-0.071 -0.36,-0.101 -0.48,-0.101 -0.46,0 -0.58,0.171 -0.58,0.821 v 2.571 h 0.86 l 0.34,0.918 h -1.2 c 0,0.52 0.03,1.08 0.08,1.55 l -1.359,-0.34 c -0.05,-0.38 -0.05,-0.71 -0.05,-1.21 H 9.956 V 3.661 h 0.51 V 0.88 c 0,-0.47 0.01,-0.57 0.09,-0.79 0.16,-0.45 0.699,-0.749 1.379,-0.749 0.35,0 0.7,0.07 1.09,0.229 m 2.515,-0.109 v 5.24 l -1.339,-0.21 v -5.03 z M 15.7,5.99 c 0,0.46 -0.36,0.829 -0.81,0.829 -0.459,0 -0.839,-0.369 -0.839,-0.829 0,-0.46 0.37,-0.829 0.819,-0.829 0.46,0 0.83,0.369 0.83,0.829 m 5.304,-6.529 v 3.74 c 0,0.32 -0.029,0.54 -0.099,0.729 -0.16,0.44 -0.66,0.739 -1.229,0.739 -0.301,0 -0.651,-0.079 -0.921,-0.219 -0.22,-0.12 -0.39,-0.24 -0.59,-0.38 0,0.21 -0.07,0.43 -0.19,0.639 L 16.786,4.37 c 0.12,-0.34 0.18,-0.76 0.18,-1.2 v -3.709 h 1.338 V 3.08 c 0.311,0.281 0.661,0.461 0.931,0.461 0.351,0 0.451,-0.17 0.451,-0.75 v -3.33 z m 6.545,4.558 -0.56,0.85 c -0.31,-0.28 -0.689,-0.44 -1.059,-0.44 -0.17,0 -0.35,0.04 -0.63,0.11 -0.37,0.09 -0.63,0.13 -0.92,0.13 -1.31,0 -2.159,-0.68 -2.159,-1.73 C 22.221,2.18 22.58,1.71 23.319,1.52 22.48,1.301 22.38,0.99 22.38,0.66 c 0,-0.35 0.15,-0.58 0.39,-0.669 0.24,-0.1 0.629,-0.15 1.23,-0.16 l 0.57,-0.01 c 0.53,-0.01 0.94,-0.15 0.94,-0.611 0,-0.21 -0.13,-0.4 -0.33,-0.52 -0.21,-0.13 -0.5,-0.171 -0.84,-0.171 -0.621,0 -0.961,0.221 -0.961,0.631 0,0.14 0.01,0.21 0.06,0.33 h -1.238 c -0.051,-0.1 -0.12,-0.24 -0.12,-0.52 0,-0.35 0.14,-0.65 0.419,-0.91 0.46,-0.429 1.209,-0.549 1.94,-0.549 0.8,0 1.57,0.18 2.02,0.659 0.279,0.3 0.409,0.63 0.409,1.06 0,0.461 -0.14,0.81 -0.439,1.09 -0.36,0.33 -0.77,0.45 -1.55,0.459 L 24.16,0.78 c -0.14,0 -0.221,0.05 -0.221,0.12 0,0.14 0.191,0.26 0.531,0.421 0.1,-0.01 0.14,-0.01 0.2,-0.01 1.09,0 1.89,0.639 1.89,1.518 0,0.34 -0.1,0.6 -0.3,0.84 0.08,-0.01 0.22,-0.03 0.349,-0.03 0.37,0 0.65,0.11 0.94,0.38 M 25.18,2.929 c 0,-0.47 -0.29,-0.73 -0.82,-0.73 -0.471,0 -0.791,0.21 -0.791,0.73 0,0.482 0.29,0.762 0.801,0.762 0.51,0 0.81,-0.28 0.81,-0.761 z M 32.194,1.601 V 1.91 c 0,1.07 -0.21,1.761 -0.68,2.24 -0.33,0.34 -0.89,0.539 -1.48,0.539 -0.68,0 -1.19,-0.219 -1.609,-0.689 -0.45,-0.499 -0.64,-1.11 -0.64,-2.03 0,-1.61 0.949,-2.649 2.419,-2.649 0.72,0 1.34,0.229 1.93,0.709 l -0.52,0.8 c -0.41,-0.34 -0.84,-0.511 -1.3,-0.511 -0.69,0 -1.08,0.451 -1.08,1.242 v 0.04 z m -1.39,0.978 h -1.55 V 2.6 c 0,0.71 0.29,1.111 0.8,1.111 0.27,0 0.46,-0.1 0.59,-0.301 0.12,-0.19 0.16,-0.39 0.16,-0.77 z m 6.655,-3.118 v 3.74 c 0,0.32 -0.03,0.54 -0.1,0.729 -0.16,0.44 -0.659,0.739 -1.229,0.739 -0.3,0 -0.65,-0.079 -0.921,-0.219 -0.22,-0.12 -0.39,-0.24 -0.59,-0.38 0,0.21 -0.07,0.43 -0.19,0.639 L 33.24,4.37 c 0.12,-0.34 0.18,-0.76 0.18,-1.2 v -3.709 h 1.339 V 3.08 c 0.31,0.281 0.66,0.461 0.931,0.461 0.35,0 0.45,-0.17 0.45,-0.75 v -3.33 z"
             style="fill:#ffffff;fill-opacity:1;fill-rule:nonzero;stroke:none"
             id="path38" />
        </g>
      </g>
    </g>
    <path
       d="m 129.26,0 h 49.89 v 14.173 h -49.89 z"
       style="fill:#4f4c4d;fill-opacity:1;fill-rule:nonzero;stroke:none"
       id="path40" />
    <g
       id="g42">
      <g
         id="g44"
         clip-path="url(#clipPath48)">
        <g
           id="g50"
           transform="translate(57.949,20.6751)">
          <path
             d="M 0,0 V 1.199 H -2.63 V 3.06 h 1.97 V 4.199 H -2.63 V 5.81 h 2.36 l 0.18,1.139 H -4.049 V 0 Z M 5.44,0 V 3.74 C 5.44,4.06 5.41,4.28 5.34,4.47 5.18,4.909 4.681,5.209 4.111,5.209 3.811,5.209 3.461,5.129 3.19,4.989 2.97,4.869 2.8,4.749 2.6,4.609 c 0,0.21 -0.07,0.43 -0.19,0.64 L 1.221,4.909 c 0.12,-0.34 0.18,-0.76 0.18,-1.2 V 0 H 2.74 V 3.619 C 3.05,3.9 3.4,4.08 3.671,4.08 c 0.35,0 0.45,-0.17 0.45,-0.75 l 0,-3.33 z m 6.57,4.559 -0.56,0.85 c -0.31,-0.28 -0.69,-0.44 -1.059,-0.44 -0.17,0 -0.35,0.04 -0.63,0.11 -0.37,0.09 -0.631,0.13 -0.921,0.13 -1.31,0 -2.159,-0.68 -2.159,-1.73 0,-0.76 0.36,-1.23 1.099,-1.419 C 6.941,1.84 6.841,1.529 6.841,1.199 6.841,0.849 6.991,0.62 7.23,0.53 7.47,0.43 7.86,0.38 8.46,0.37 L 9.03,0.36 c 0.531,-0.01 0.941,-0.15 0.941,-0.611 0,-0.21 -0.13,-0.4 -0.33,-0.52 -0.21,-0.13 -0.501,-0.17 -0.841,-0.17 -0.62,0 -0.96,0.22 -0.96,0.63 0,0.14 0.01,0.211 0.06,0.331 H 6.661 c -0.05,-0.1 -0.12,-0.241 -0.12,-0.521 0,-0.35 0.14,-0.65 0.42,-0.91 C 7.42,-1.84 8.17,-1.96 8.9,-1.96 c 0.801,0 1.571,0.18 2.02,0.659 0.28,0.3 0.41,0.63 0.41,1.06 0,0.461 -0.14,0.811 -0.44,1.09 -0.36,0.33 -0.769,0.45 -1.549,0.46 L 8.62,1.319 c -0.14,0 -0.22,0.05 -0.22,0.12 0,0.14 0.19,0.261 0.53,0.421 0.1,-0.01 0.14,-0.01 0.2,-0.01 1.091,0 1.89,0.639 1.89,1.519 0,0.34 -0.1,0.6 -0.3,0.84 0.08,-0.01 0.22,-0.03 0.35,-0.03 0.37,0 0.65,0.11 0.94,0.38 M 9.641,3.469 c 0,-0.47 -0.29,-0.73 -0.821,-0.73 -0.47,0 -0.79,0.21 -0.79,0.73 0,0.481 0.29,0.761 0.8,0.761 0.511,0 0.811,-0.28 0.811,-0.761 z M 14.11,0 V 5.24 L 12.771,5.03 V 0 Z m 0.16,6.529 c 0,0.46 -0.36,0.83 -0.81,0.83 -0.459,0 -0.839,-0.37 -0.839,-0.83 0,-0.459 0.37,-0.829 0.819,-0.829 0.46,0 0.83,0.37 0.83,0.829 M 19.65,0 v 3.74 c 0,0.32 -0.03,0.54 -0.1,0.73 -0.16,0.439 -0.66,0.739 -1.229,0.739 -0.3,0 -0.651,-0.08 -0.921,-0.22 -0.22,-0.12 -0.39,-0.24 -0.59,-0.38 0,0.21 -0.07,0.43 -0.19,0.64 l -1.189,-0.34 c 0.12,-0.34 0.18,-0.76 0.18,-1.2 V 0 h 1.339 v 3.619 c 0.31,0.281 0.66,0.461 0.93,0.461 0.351,0 0.451,-0.17 0.451,-0.75 V 0 Z m 5.609,2.14 v 0.31 c 0,1.069 -0.21,1.76 -0.68,2.239 -0.33,0.34 -0.89,0.54 -1.48,0.54 -0.68,0 -1.189,-0.22 -1.609,-0.689 -0.449,-0.5 -0.639,-1.111 -0.639,-2.03 0,-1.611 0.949,-2.65 2.418,-2.65 0.72,0 1.34,0.23 1.93,0.709 l -0.52,0.8 c -0.41,-0.34 -0.84,-0.51 -1.3,-0.51 -0.69,0 -1.08,0.45 -1.08,1.241 v 0.04 z m -1.39,0.979 h -1.55 v 0.02 c 0,0.711 0.29,1.111 0.8,1.111 0.27,0 0.46,-0.1 0.59,-0.3 0.12,-0.191 0.16,-0.391 0.16,-0.771 z m 6.75,-0.979 v 0.31 c 0,1.069 -0.21,1.76 -0.68,2.239 -0.33,0.34 -0.89,0.54 -1.48,0.54 -0.68,0 -1.189,-0.22 -1.609,-0.689 -0.45,-0.5 -0.639,-1.111 -0.639,-2.03 0,-1.611 0.949,-2.65 2.418,-2.65 0.72,0 1.34,0.23 1.93,0.709 l -0.52,0.8 c -0.41,-0.34 -0.84,-0.51 -1.3,-0.51 -0.69,0 -1.08,0.45 -1.08,1.241 v 0.04 z m -1.39,0.979 h -1.55 v 0.02 c 0,0.711 0.29,1.111 0.8,1.111 0.27,0 0.46,-0.1 0.59,-0.3 0.12,-0.191 0.16,-0.391 0.16,-0.771 z m 5.56,2.01 c -0.21,0.09 -0.3,0.11 -0.5,0.11 -0.5,0 -0.91,-0.34 -1.2,-0.73 -0.02,0.29 -0.09,0.52 -0.209,0.73 l -1.199,-0.32 c 0.11,-0.29 0.19,-0.81 0.19,-1.5 V 0 h 1.338 v 3.619 c 0.25,0.29 0.52,0.43 0.82,0.43 0.15,0 0.26,-0.03 0.39,-0.1 z M 37.099,0 V 5.24 L 35.761,5.03 V 0 Z m 0.16,6.529 c 0,0.46 -0.36,0.83 -0.809,0.83 -0.46,0 -0.839,-0.37 -0.839,-0.83 0,-0.459 0.369,-0.829 0.819,-0.829 0.459,0 0.829,0.37 0.829,0.829 M 42.839,0 v 3.74 c 0,0.32 -0.03,0.54 -0.1,0.73 -0.16,0.439 -0.659,0.739 -1.229,0.739 -0.3,0 -0.65,-0.08 -0.92,-0.22 -0.221,-0.12 -0.391,-0.24 -0.591,-0.38 0,0.21 -0.07,0.43 -0.189,0.64 l -1.19,-0.34 c 0.12,-0.34 0.18,-0.76 0.18,-1.2 V 0 h 1.339 V 3.619 C 40.45,3.9 40.8,4.08 41.07,4.08 c 0.35,0 0.45,-0.17 0.45,-0.75 V 0 Z m 6.57,4.559 -0.56,0.85 c -0.31,-0.28 -0.689,-0.44 -1.059,-0.44 -0.17,0 -0.35,0.04 -0.63,0.11 -0.37,0.09 -0.63,0.13 -0.92,0.13 -1.31,0 -2.16,-0.68 -2.16,-1.73 0,-0.76 0.36,-1.23 1.099,-1.419 C 44.34,1.84 44.24,1.529 44.24,1.199 c 0,-0.35 0.15,-0.579 0.39,-0.669 0.24,-0.1 0.629,-0.15 1.229,-0.16 L 46.43,0.36 c 0.53,-0.01 0.94,-0.15 0.94,-0.611 0,-0.21 -0.13,-0.4 -0.33,-0.52 -0.21,-0.13 -0.5,-0.17 -0.84,-0.17 -0.621,0 -0.961,0.22 -0.961,0.63 0,0.14 0.01,0.211 0.06,0.331 H 44.06 c -0.05,-0.1 -0.12,-0.241 -0.12,-0.521 0,-0.35 0.14,-0.65 0.42,-0.91 0.46,-0.429 1.209,-0.549 1.94,-0.549 0.8,0 1.57,0.18 2.019,0.659 0.28,0.3 0.41,0.63 0.41,1.06 0,0.461 -0.14,0.811 -0.439,1.09 -0.36,0.33 -0.77,0.45 -1.55,0.46 l -0.721,0.01 c -0.14,0 -0.22,0.05 -0.22,0.12 0,0.14 0.19,0.261 0.531,0.421 0.1,-0.01 0.14,-0.01 0.2,-0.01 1.09,0 1.889,0.639 1.889,1.519 0,0.34 -0.1,0.6 -0.299,0.84 0.08,-0.01 0.219,-0.03 0.349,-0.03 0.37,0 0.65,0.11 0.94,0.38 M 47.04,3.469 c 0,-0.47 -0.29,-0.73 -0.82,-0.73 -0.471,0 -0.791,0.21 -0.791,0.73 0,0.481 0.29,0.761 0.801,0.761 0.51,0 0.81,-0.28 0.81,-0.761 z m 9.359,-2.91 c -0.45,0.34 -0.49,0.58 -0.48,1.141 l 0.03,1.719 c 0.01,0.551 -0.02,0.711 -0.09,0.921 -0.2,0.569 -0.789,0.889 -1.649,0.889 -0.471,0 -0.901,-0.09 -1.401,-0.3 C 52.45,4.779 52.25,4.679 51.98,4.51 l 0.57,-0.961 c 0.549,0.371 1.049,0.581 1.48,0.581 0.49,0 0.6,-0.19 0.6,-0.761 v -0.21 c -0.11,0.01 -0.2,0.01 -0.3,0.01 -1.631,0 -2.46,-0.56 -2.46,-1.76 0,-1.02 0.62,-1.599 1.759,-1.599 0.421,0 0.781,0.1 1.031,0.28 0.1,0.07 0.21,0.169 0.31,0.269 C 55.1,0.1 55.379,-0.13 55.689,-0.26 Z M 54.61,2.24 54.59,1.14 c -0.2,-0.221 -0.45,-0.351 -0.701,-0.351 -0.34,0 -0.59,0.27 -0.59,0.67 0,0.611 0.32,0.781 1.251,0.781 z M 61.479,0 v 3.74 c 0,0.32 -0.03,0.54 -0.1,0.73 -0.16,0.439 -0.66,0.739 -1.229,0.739 -0.3,0 -0.651,-0.08 -0.921,-0.22 -0.22,-0.12 -0.39,-0.24 -0.59,-0.38 0,0.21 -0.07,0.43 -0.19,0.64 L 57.26,4.909 c 0.12,-0.34 0.18,-0.76 0.18,-1.2 V 0 h 1.339 v 3.619 c 0.31,0.281 0.66,0.461 0.931,0.461 0.35,0 0.45,-0.17 0.45,-0.75 V 0 Z m 5.58,0 c -0.09,0.2 -0.19,0.61 -0.19,1.87 v 5.319 l -1.329,0.21 v -1.76 c 0,-0.3 0.02,-0.65 0.04,-0.76 -0.25,0.2 -0.541,0.29 -0.911,0.29 -1.3,0 -2.189,-1.099 -2.189,-2.699 0,-1.591 0.819,-2.6 2.119,-2.6 0.46,0 0.851,0.14 1.181,0.43 C 65.8,0.16 65.82,0.08 65.86,0 Z M 65.56,1.33 C 65.43,1.169 65.15,0.999 64.899,0.999 c -0.7,0 -0.93,0.36 -0.93,1.46 0,1.141 0.26,1.641 0.86,1.641 0.24,0 0.481,-0.11 0.731,-0.33 z M 75.328,0 V 6.949 H 73.91 v -2.7 h -2.002 v 2.7 H 70.52 V 0 h 1.388 V 3.1 H 73.91 V 0 Z m 5.61,2.14 v 0.31 c 0,1.069 -0.21,1.76 -0.68,2.239 -0.33,0.34 -0.89,0.54 -1.48,0.54 -0.68,0 -1.189,-0.22 -1.609,-0.689 C 76.72,4.04 76.53,3.429 76.53,2.51 c 0,-1.611 0.949,-2.65 2.418,-2.65 0.72,0 1.34,0.23 1.93,0.709 l -0.52,0.8 c -0.41,-0.34 -0.84,-0.51 -1.3,-0.51 -0.69,0 -1.08,0.45 -1.08,1.241 v 0.04 z m -1.39,0.979 h -1.55 v 0.02 c 0,0.711 0.29,1.111 0.8,1.111 0.27,0 0.46,-0.1 0.59,-0.3 0.12,-0.191 0.16,-0.391 0.16,-0.771 z m 6.72,-2.56 c -0.45,0.34 -0.49,0.58 -0.48,1.141 l 0.03,1.719 c 0.01,0.551 -0.02,0.711 -0.09,0.921 -0.199,0.569 -0.789,0.889 -1.649,0.889 -0.47,0 -0.901,-0.09 -1.4,-0.3 -0.36,-0.15 -0.56,-0.25 -0.829,-0.419 l 0.569,-0.961 c 0.55,0.371 1.05,0.581 1.48,0.581 0.491,0 0.601,-0.19 0.601,-0.761 v -0.21 c -0.11,0.01 -0.201,0.01 -0.301,0.01 -1.63,0 -2.459,-0.56 -2.459,-1.76 0,-1.02 0.619,-1.599 1.759,-1.599 0.42,0 0.78,0.1 1.031,0.28 0.1,0.07 0.209,0.169 0.309,0.269 0.13,-0.259 0.41,-0.489 0.72,-0.619 z M 84.48,2.24 84.46,1.14 C 84.259,0.919 84.009,0.789 83.759,0.789 c -0.34,0 -0.591,0.27 -0.591,0.67 0,0.611 0.321,0.781 1.252,0.781 z m 4.858,-2.22 -0.23,0.8 c -0.07,-0.02 -0.1,-0.02 -0.15,-0.02 -0.11,0 -0.22,0.05 -0.27,0.14 -0.08,0.14 -0.09,0.26 -0.09,1.14 v 3.989 c 0,0.72 -0.02,1.05 -0.07,1.33 L 87.16,7.089 c 0.05,-0.46 0.07,-0.87 0.07,-1.54 V 1.73 c 0,-0.73 0.02,-0.89 0.119,-1.15 0.16,-0.43 0.62,-0.7 1.189,-0.7 0.29,0 0.57,0.05 0.8,0.14 m 3.72,0.09 -0.17,0.799 c -0.24,-0.07 -0.36,-0.1 -0.48,-0.1 -0.46,0 -0.58,0.17 -0.58,0.82 V 4.2 h 0.86 l 0.34,0.919 h -1.2 c 0,0.52 0.03,1.08 0.08,1.55 l -1.359,-0.34 c -0.05,-0.38 -0.05,-0.71 -0.05,-1.21 h -0.51 V 4.2 h 0.51 V 1.419 c 0,-0.47 0.01,-0.57 0.09,-0.79 0.16,-0.449 0.7,-0.749 1.379,-0.749 0.35,0 0.7,0.07 1.09,0.23 M 98.258,0 v 3.58 c 0,0.49 -0.03,0.66 -0.13,0.95 -0.16,0.449 -0.679,0.729 -1.329,0.729 -0.52,0 -1.101,-0.22 -1.451,-0.55 0,0.06 0.02,0.27 0.02,0.43 v 1.02 c 0,0.49 -0.03,0.97 -0.09,1.25 l -1.369,-0.32 c 0.06,-0.21 0.1,-0.69 0.1,-1.17 V 0 h 1.359 v 3.67 c 0.3,0.27 0.731,0.47 1.061,0.47 0.38,0 0.52,-0.19 0.52,-0.7 V 0 Z"
             style="fill:#ffffff;fill-opacity:1;fill-rule:nonzero;stroke:none"
             id="path52" />
        </g>
        <g
           id="g54"
           transform="translate(86.0154,41.7971)">
          <path
             d="m 0,0 h -3.769 v -6.949 h 1.399 v 3.09 h 1.77 v 1.139 h -1.77 v 1.591 h 2.21 z M 4.9,-6.39 C 4.45,-6.05 4.41,-5.81 4.42,-5.249 L 4.45,-3.53 C 4.46,-2.979 4.43,-2.819 4.36,-2.609 4.16,-2.04 3.571,-1.72 2.711,-1.72 2.24,-1.72 1.81,-1.81 1.31,-2.02 0.951,-2.169 0.751,-2.269 0.481,-2.439 L 1.051,-3.4 c 0.549,0.371 1.049,0.581 1.48,0.581 0.49,0 0.6,-0.19 0.6,-0.761 v -0.21 c -0.11,0.01 -0.2,0.01 -0.3,0.01 -1.63,0 -2.46,-0.559 -2.46,-1.759 0,-1.02 0.62,-1.6 1.759,-1.6 0.421,0 0.781,0.1 1.031,0.28 0.1,0.07 0.21,0.17 0.31,0.27 0.13,-0.26 0.41,-0.49 0.719,-0.62 z m -1.789,1.681 -0.02,-1.1 C 2.891,-6.03 2.641,-6.16 2.391,-6.16 2.05,-6.16 1.8,-5.89 1.8,-5.489 c 0,0.61 0.32,0.78 1.251,0.78 z M 9.39,-6.37 8.78,-5.56 8.7,-5.63 C 8.37,-5.92 8.09,-6.05 7.78,-6.05 c -0.23,0 -0.46,0.11 -0.6,0.29 -0.17,0.22 -0.26,0.62 -0.26,1.291 0,1.2 0.27,1.72 0.87,1.72 0.25,0 0.54,-0.15 0.81,-0.4 l 0.65,0.88 C 9.03,-2.08 8.94,-2.01 8.75,-1.91 8.47,-1.76 8.1,-1.68 7.76,-1.68 7.33,-1.68 6.83,-1.83 6.49,-2.06 5.891,-2.469 5.441,-3.249 5.441,-4.429 c 0,-1.661 0.819,-2.64 2.229,-2.64 0.49,0 0.89,0.11 1.25,0.32 0.18,0.11 0.27,0.18 0.47,0.379 m 5.22,-0.179 c -0.2,0.24 -0.31,0.59 -0.31,0.93 v 3.909 l -1.279,-0.27 v -3.599 c -0.1,-0.25 -0.5,-0.49 -0.831,-0.49 -0.2,0 -0.4,0.1 -0.47,0.24 -0.07,0.14 -0.11,0.38 -0.11,0.84 V -1.7 l -1.319,-0.25 v -3.279 c 0,-0.52 0.03,-0.79 0.11,-1.02 0.17,-0.49 0.789,-0.83 1.509,-0.83 0.541,0 1.021,0.17 1.351,0.49 0.09,-0.21 0.23,-0.38 0.4,-0.5 z m 3.05,-0.38 -0.23,0.8 c -0.07,-0.02 -0.1,-0.02 -0.15,-0.02 -0.11,0 -0.22,0.05 -0.27,0.14 -0.08,0.14 -0.09,0.26 -0.09,1.14 v 3.989 c 0,0.72 -0.02,1.05 -0.07,1.33 L 15.481,0.14 c 0.05,-0.46 0.07,-0.87 0.07,-1.54 v -3.819 c 0,-0.73 0.02,-0.89 0.12,-1.15 0.16,-0.43 0.62,-0.7 1.189,-0.7 0.29,0 0.57,0.05 0.8,0.14 m 3.72,0.09 -0.17,0.799 c -0.24,-0.07 -0.36,-0.1 -0.48,-0.1 -0.46,0 -0.58,0.17 -0.58,0.82 v 2.571 h 0.86 l 0.34,0.919 h -1.2 c 0,0.52 0.03,1.08 0.08,1.55 l -1.359,-0.34 c -0.05,-0.38 -0.05,-0.71 -0.05,-1.21 h -0.51 v -0.919 h 0.51 V -5.53 c 0,-0.47 0.01,-0.57 0.09,-0.79 0.16,-0.449 0.699,-0.749 1.379,-0.749 0.35,0 0.7,0.07 1.09,0.23 m 5.47,5.009 h -1.41 l -0.77,-2.439 c -0.08,-0.24 -0.16,-0.54 -0.2,-0.71 -0.06,-0.25 -0.16,-0.79 -0.16,-0.82 l -0.27,1.06 -0.89,2.989 -1.37,-0.16 1.69,-5.039 h 0.34 c -0.12,-0.3 -0.16,-0.39 -0.29,-0.6 -0.11,-0.17 -0.23,-0.31 -0.38,-0.42 -0.2,-0.14 -0.54,-0.26 -0.83,-0.34 l 0.46,-0.88 c 0.46,0.06 0.9,0.22 1.24,0.47 0.37,0.27 0.63,0.7 0.98,1.69 z m 7.18,-2.539 c 0,0.83 -0.18,1.39 -0.59,1.87 -0.439,0.519 -1.009,0.769 -1.74,0.769 -1.38,0 -2.299,-1.069 -2.299,-2.679 0,-1.611 0.909,-2.65 2.299,-2.65 0.791,0 1.301,0.27 1.69,0.709 0.44,0.5 0.64,1.1 0.64,1.981 m -1.459,0.01 c 0,-1.211 -0.25,-1.731 -0.831,-1.731 -0.26,0 -0.56,0.14 -0.68,0.42 -0.11,0.26 -0.17,0.7 -0.17,1.291 0,0.51 0.05,0.87 0.14,1.14 0.11,0.32 0.37,0.52 0.69,0.52 0.24,0 0.451,-0.1 0.581,-0.27 0.18,-0.23 0.27,-0.68 0.27,-1.37 M 38.22,0.14 c -0.41,0.23 -0.77,0.32 -1.21,0.32 -1.05,0 -1.649,-0.58 -1.649,-1.59 0,-0.23 0.02,-0.49 0.05,-0.7 h -0.49 v -0.919 h 0.46 v -4.2 h 1.309 v 4.2 h 0.95 l 0.34,0.919 h -1.3 v 0.73 c 0,0.37 0.22,0.58 0.56,0.58 0.16,0 0.26,-0.03 0.55,-0.17 z"
             style="fill:#ffffff;fill-opacity:1;fill-rule:nonzero;stroke:none"
             id="path56" />
        </g>
        <g
           id="g58"
           transform="translate(138.1056,4.2065)">
          <path
             d="m 0,0 v 3.319 h -2.689 l 0.18,-1.138 h 1.06 V 0.6 c -0.23,-0.12 -0.48,-0.171 -0.79,-0.171 -0.45,0 -0.831,0.141 -1.091,0.391 -0.35,0.35 -0.52,0.99 -0.52,1.98 0,1.04 0.12,1.79 0.59,2.241 0.24,0.23 0.591,0.35 1.001,0.35 0.53,0 1,-0.17 1.45,-0.541 L -0.07,5.72 C -0.679,6.25 -1.439,6.519 -2.279,6.519 -2.94,6.519 -3.46,6.37 -3.97,6.03 -4.939,5.381 -5.419,4.34 -5.419,2.87 c 0,-1.04 0.23,-1.78 0.74,-2.431 0.559,-0.719 1.329,-1.058 2.37,-1.058 0.82,0 1.6,0.2 2.309,0.619 m 5.655,2.04 c 0,0.83 -0.18,1.391 -0.59,1.87 C 4.626,4.43 4.056,4.679 3.325,4.679 1.945,4.679 1.026,3.611 1.026,2 c 0,-1.61 0.909,-2.649 2.299,-2.649 0.791,0 1.301,0.269 1.69,0.709 0.44,0.5 0.64,1.1 0.64,1.98 M 4.196,2.05 c 0,-1.21 -0.25,-1.731 -0.831,-1.731 -0.26,0 -0.56,0.141 -0.68,0.421 -0.11,0.26 -0.17,0.7 -0.17,1.29 0,0.51 0.05,0.87 0.14,1.141 0.11,0.32 0.37,0.52 0.69,0.52 0.241,0 0.451,-0.1 0.581,-0.27 0.18,-0.23 0.27,-0.681 0.27,-1.371 M 3.045,5.81 c 0,0.42 -0.34,0.769 -0.75,0.769 -0.42,0 -0.78,-0.349 -0.78,-0.769 0,-0.42 0.35,-0.769 0.76,-0.769 0.42,0 0.77,0.349 0.77,0.769 m 2.11,0 c 0,0.42 -0.34,0.769 -0.75,0.769 -0.42,0 -0.78,-0.349 -0.78,-0.769 0,-0.42 0.35,-0.769 0.76,-0.769 0.42,0 0.77,0.349 0.77,0.769 M 9.34,-0.43 9.17,0.37 C 8.93,0.299 8.81,0.269 8.69,0.269 8.23,0.269 8.11,0.44 8.11,1.09 v 2.571 h 0.86 l 0.34,0.918 h -1.2 c 0,0.52 0.03,1.08 0.08,1.55 L 6.831,5.789 C 6.781,5.409 6.781,5.079 6.781,4.579 H 6.271 V 3.661 h 0.51 V 0.88 c 0,-0.47 0.01,-0.57 0.09,-0.79 0.16,-0.45 0.699,-0.749 1.379,-0.749 0.35,0 0.7,0.07 1.09,0.229 m 3.685,0 -0.17,0.8 c -0.24,-0.071 -0.36,-0.101 -0.48,-0.101 -0.46,0 -0.58,0.171 -0.58,0.821 v 2.571 h 0.86 l 0.34,0.918 h -1.2 c 0,0.52 0.03,1.08 0.08,1.55 l -1.359,-0.34 c -0.05,-0.38 -0.05,-0.71 -0.05,-1.21 H 9.956 V 3.661 h 0.51 V 0.88 c 0,-0.47 0.01,-0.57 0.09,-0.79 0.16,-0.45 0.699,-0.749 1.379,-0.749 0.35,0 0.7,0.07 1.09,0.229 m 2.515,-0.109 v 5.24 l -1.339,-0.21 v -5.03 z M 15.7,5.99 c 0,0.46 -0.36,0.829 -0.81,0.829 -0.459,0 -0.839,-0.369 -0.839,-0.829 0,-0.46 0.37,-0.829 0.819,-0.829 0.46,0 0.83,0.369 0.83,0.829 m 5.304,-6.529 v 3.74 c 0,0.32 -0.029,0.54 -0.099,0.729 -0.16,0.44 -0.66,0.739 -1.229,0.739 -0.301,0 -0.651,-0.079 -0.921,-0.219 -0.22,-0.12 -0.39,-0.24 -0.59,-0.38 0,0.21 -0.07,0.43 -0.19,0.639 L 16.786,4.37 c 0.12,-0.34 0.18,-0.76 0.18,-1.2 v -3.709 h 1.338 V 3.08 c 0.311,0.281 0.661,0.461 0.931,0.461 0.351,0 0.451,-0.17 0.451,-0.75 v -3.33 z m 6.545,4.558 -0.56,0.85 c -0.31,-0.28 -0.689,-0.44 -1.059,-0.44 -0.17,0 -0.35,0.04 -0.63,0.11 -0.37,0.09 -0.63,0.13 -0.92,0.13 -1.31,0 -2.159,-0.68 -2.159,-1.73 C 22.221,2.18 22.58,1.71 23.319,1.52 22.48,1.301 22.38,0.99 22.38,0.66 c 0,-0.35 0.15,-0.58 0.39,-0.669 0.24,-0.1 0.629,-0.15 1.23,-0.16 l 0.57,-0.01 c 0.53,-0.01 0.94,-0.15 0.94,-0.611 0,-0.21 -0.13,-0.4 -0.33,-0.52 -0.21,-0.13 -0.5,-0.171 -0.84,-0.171 -0.621,0 -0.961,0.221 -0.961,0.631 0,0.14 0.01,0.21 0.06,0.33 h -1.238 c -0.051,-0.1 -0.12,-0.24 -0.12,-0.52 0,-0.35 0.14,-0.65 0.419,-0.91 0.46,-0.429 1.209,-0.549 1.94,-0.549 0.8,0 1.57,0.18 2.02,0.659 0.279,0.3 0.409,0.63 0.409,1.06 0,0.461 -0.14,0.81 -0.439,1.09 -0.36,0.33 -0.77,0.45 -1.55,0.459 L 24.16,0.78 c -0.14,0 -0.221,0.05 -0.221,0.12 0,0.14 0.191,0.26 0.531,0.421 0.1,-0.01 0.14,-0.01 0.2,-0.01 1.09,0 1.89,0.639 1.89,1.518 0,0.34 -0.1,0.6 -0.3,0.84 0.08,-0.01 0.22,-0.03 0.349,-0.03 0.37,0 0.65,0.11 0.94,0.38 M 25.18,2.929 c 0,-0.47 -0.29,-0.73 -0.82,-0.73 -0.471,0 -0.791,0.21 -0.791,0.73 0,0.482 0.29,0.762 0.801,0.762 0.51,0 0.81,-0.28 0.81,-0.761 z M 32.194,1.601 V 1.91 c 0,1.07 -0.21,1.761 -0.68,2.24 -0.33,0.34 -0.89,0.539 -1.48,0.539 -0.68,0 -1.19,-0.219 -1.609,-0.689 -0.45,-0.499 -0.64,-1.11 -0.64,-2.03 0,-1.61 0.949,-2.649 2.419,-2.649 0.72,0 1.34,0.229 1.93,0.709 l -0.52,0.8 c -0.41,-0.34 -0.84,-0.511 -1.3,-0.511 -0.69,0 -1.08,0.451 -1.08,1.242 v 0.04 z m -1.39,0.978 h -1.55 V 2.6 c 0,0.71 0.29,1.111 0.8,1.111 0.27,0 0.46,-0.1 0.59,-0.301 0.12,-0.19 0.16,-0.39 0.16,-0.77 z m 6.655,-3.118 v 3.74 c 0,0.32 -0.03,0.54 -0.1,0.729 -0.16,0.44 -0.659,0.739 -1.229,0.739 -0.3,0 -0.65,-0.079 -0.921,-0.219 -0.22,-0.12 -0.39,-0.24 -0.59,-0.38 0,0.21 -0.07,0.43 -0.19,0.639 L 33.24,4.37 c 0.12,-0.34 0.18,-0.76 0.18,-1.2 v -3.709 h 1.339 V 3.08 c 0.31,0.281 0.66,0.461 0.931,0.461 0.35,0 0.45,-0.17 0.45,-0.75 v -3.33 z"
             style="fill:#ffffff;fill-opacity:1;fill-rule:nonzero;stroke:none"
             id="path60" />
        </g>
      </g>
    </g>
  </g>
</svg>
